<svg width="18" height="16" viewBox="0 0 18 16" fill="none" xmlns="http://www.w3.org/2000/svg">
<path d="M9.00143 5.33826L6.40577 0.757473C6.49195 0.669725 6.5911 0.612171 6.69026 0.573486C5.92481 0.825406 5.5736 1.68495 5.5736 1.68495L0.831715 10.0511C0.764993 10.3134 0.746458 10.5503 0.754798 10.7588H5.93037L9.00143 5.33826Z" fill="#34A853"/>
<path d="M9.00146 5.33826L12.0725 10.7588H17.2481C17.2564 10.5503 17.2379 10.3134 17.1712 10.0511L12.4293 1.68495C12.4293 1.68495 12.0772 0.825406 11.3126 0.573486C11.4109 0.612171 11.5109 0.669725 11.5971 0.757473L9.00146 5.33826Z" fill="#FBBC05"/>
<path d="M9.00143 5.33832L11.5971 0.757535C11.5109 0.669788 11.4108 0.612233 11.3126 0.573549C11.1995 0.536751 11.0781 0.51222 10.9466 0.505615H10.8094H7.19345H7.0563C6.92563 0.511276 6.80331 0.535808 6.69026 0.573549C6.59203 0.612233 6.49194 0.669788 6.40576 0.757535L9.00143 5.33832Z" fill="#188038"/>
<path d="M5.93117 10.7588L3.36516 15.2877C3.36516 15.2877 3.2799 15.2462 3.16406 15.1603C3.52825 15.4405 3.88225 15.5 3.88225 15.5H13.96C14.516 15.5 14.6319 15.2877 14.6319 15.2877C14.6337 15.2867 14.6347 15.2858 14.6365 15.2849L12.0724 10.7588H5.93117Z" fill="#4285F4"/>
<path d="M5.93143 10.7588H0.755859C0.781807 11.374 1.04869 11.7334 1.04869 11.7334L1.2433 12.0712C1.2572 12.091 1.26554 12.1024 1.26554 12.1024L1.68904 12.8459L2.63982 14.5008C2.66762 14.5678 2.70006 14.6291 2.73435 14.6876C2.74732 14.7074 2.75937 14.7291 2.77327 14.748C2.77697 14.7537 2.78068 14.7593 2.78439 14.765C2.90208 14.931 3.03367 15.0594 3.16526 15.1603C3.2811 15.2471 3.36635 15.2877 3.36635 15.2877L5.93143 10.7588Z" fill="#1967D2"/>
<path d="M12.0723 10.7588H17.2478C17.2219 11.374 16.955 11.7334 16.955 11.7334L16.7604 12.0712C16.7465 12.091 16.7382 12.1024 16.7382 12.1024L16.3147 12.8459L15.3639 14.5008C15.3361 14.5678 15.3036 14.6291 15.2694 14.6876C15.2564 14.7074 15.2443 14.7291 15.2304 14.748C15.2267 14.7537 15.223 14.7593 15.2193 14.765C15.1016 14.931 14.97 15.0594 14.8384 15.1603C14.7226 15.2471 14.6373 15.2877 14.6373 15.2877L12.0723 10.7588Z" fill="#EA4335"/>
</svg>
